<?xml version="1.0" encoding="UTF-8" standalone="no"?> <!-- Created with Vectornator for iOS (http://vectornator.io/) --><!DOCTYPE svg PUBLIC "-//W3C//DTD SVG 1.1//EN" "http://www.w3.org/Graphics/SVG/1.1/DTD/svg11.dtd">
<svg height="100%" style="fill-rule:nonzero;clip-rule:evenodd;stroke-linecap:round;stroke-linejoin:round;" xmlns:xlink="http://www.w3.org/1999/xlink" xmlns="http://www.w3.org/2000/svg" xml:space="preserve" width="100%" xmlns:vectornator="http://vectornator.io" version="1.1" viewBox="0 0 1024 1024">
<metadata>
<vectornator:setting key="DimensionsVisible" value="1"/>
<vectornator:setting key="PencilOnly" value="0"/>
<vectornator:setting key="SnapToPoints" value="0"/>
<vectornator:setting key="OutlineMode" value="0"/>
<vectornator:setting key="CMYKEnabledKey" value="0"/>
<vectornator:setting key="RulersVisible" value="1"/>
<vectornator:setting key="SnapToEdges" value="0"/>
<vectornator:setting key="GuidesVisible" value="1"/>
<vectornator:setting key="DisplayWhiteBackground" value="0"/>
<vectornator:setting key="doHistoryDisabled" value="0"/>
<vectornator:setting key="SnapToGuides" value="1"/>
<vectornator:setting key="TimeLapseWatermarkDisabled" value="0"/>
<vectornator:setting key="Units" value="Pixels"/>
<vectornator:setting key="DynamicGuides" value="0"/>
<vectornator:setting key="IsolateActiveLayer" value="0"/>
<vectornator:setting key="SnapToGrid" value="0"/>
</metadata>
<defs/>
<g id="Layer 1" vectornator:layerName="Layer 1">
<path stroke="#cccccc" stroke-width="12.7" d="M873.634+993.022C873.634+993.022+929.235+735.835+777.073+424.852C650.985+167.159+321.212+71.5201+321.212+71.5201C321.212+71.5201+565.662+142.345+661.908+307.764C712.502+394.719+802.135+573.052+802.135+573.052C802.135+573.052+650.769+327.485+559.144+270.239C467.519+212.993+322.603+288.454+322.603+288.454C322.603+288.454+477.659+216.349+564.686+300.144C651.712+383.938+729.065+586.269+729.065+586.269C729.065+586.269+629.78+401.949+547.306+318.711C481.788+252.587+348.513+192.332+348.513+192.332C348.513+192.332+474.248+254.801+520.852+310.572C567.456+366.342+667.648+507.175+667.648+507.175C667.648+507.175+603.919+467.645+530.761+449.815C457.603+431.985+314.971+448.448+314.971+448.448C314.971+448.448+533.596+428.573+646.087+527.487C758.577+626.401+801.529+993.343+801.529+993.343" fill="#cccccc" stroke-linecap="butt" opacity="1" stroke-linejoin="round"/>
<path stroke="#cccccc" stroke-width="12.7" d="M153.727+179.862C153.727+179.862+155.709+164.126+163.949+156.802C172.189+149.477+186.687+150.563+186.687+150.563L178.323+158.1C178.323+158.1+178.657+166.375+174.428+170.135C166.188+177.459+153.727+179.862+153.727+179.862Z" fill="#cccccc" stroke-linecap="round" opacity="1" stroke-linejoin="round"/>
<path stroke="#cccccc" stroke-width="12.7" d="M236.674+245.033C236.674+245.033+238.655+229.298+246.895+221.973C255.135+214.649+269.634+215.735+269.634+215.735L261.269+223.272C261.269+223.272+261.604+231.547+257.374+235.306C249.134+242.631+236.674+245.033+236.674+245.033Z" fill="#cccccc" stroke-linecap="round" opacity="1" stroke-linejoin="round"/>
<path stroke="#cccccc" stroke-width="12.7" d="M198.483+216.069C198.483+216.069+200.465+200.333+208.705+193.009C216.945+185.684+231.443+186.77+231.443+186.77L223.079+194.307C223.079+194.307+223.413+202.582+219.184+206.342C210.944+213.666+198.483+216.069+198.483+216.069Z" fill="#cccccc" stroke-linecap="round" opacity="1" stroke-linejoin="round"/>
<path stroke="#cccccc" stroke-width="12.7" d="M145.583+237.201C145.583+237.201+146.336+231.221+148.844+224.918C150.405+220.996+152.644+216.95+155.805+214.141C164.045+206.816+178.543+207.902+178.543+207.902L170.179+215.439C170.179+215.439+170.513+223.714+166.284+227.474C158.044+234.798+145.583+237.201+145.583+237.201Z" fill="#cccccc" stroke-linecap="round" opacity="1" stroke-linejoin="round"/>
<path stroke="#cccccc" stroke-width="12.7" d="M274.551+499.918C274.551+499.918+275.304+493.938+277.813+487.635C279.373+483.714+281.613+479.668+284.773+476.858C293.013+469.534+307.511+470.62+307.511+470.62L299.147+478.157C299.147+478.157+299.482+486.432+295.252+490.191C292.5+492.637+289.278+494.534+286.206+495.976C280.079+498.853+274.551+499.918+274.551+499.918Z" fill="#cccccc" stroke-linecap="round" opacity="1" stroke-linejoin="round"/>
<path stroke="#cccccc" stroke-width="12.7" d="M226.122+495.953C226.122+495.953+226.875+489.973+229.383+483.67C230.943+479.749+233.183+475.702+236.343+472.893C244.583+465.569+259.082+466.655+259.082+466.655L250.717+474.191C250.717+474.191+251.052+482.466+246.823+486.226C238.583+493.551+226.122+495.953+226.122+495.953Z" fill="#cccccc" stroke-linecap="round" opacity="1" stroke-linejoin="round"/>
<path stroke="#cccccc" stroke-width="12.7" d="M181.586+273.688C181.586+273.688+182.339+267.708+184.847+261.405C186.408+257.484+188.648+253.437+191.808+250.628C200.048+243.303+214.546+244.39+214.546+244.39L206.182+251.926C206.182+251.926+206.516+260.201+202.287+263.961C194.047+271.285+181.586+273.688+181.586+273.688Z" fill="#cccccc" stroke-linecap="round" opacity="1" stroke-linejoin="round"/>
<path stroke="#cccccc" stroke-width="12.7" d="M255.238+189.984C255.238+189.984+255.991+184.004+258.499+177.701C260.06+173.78+262.299+169.734+265.46+166.924C273.7+159.6+288.198+160.686+288.198+160.686L279.834+168.223C279.834+168.223+280.168+176.498+275.939+180.257C267.699+187.582+255.238+189.984+255.238+189.984Z" fill="#cccccc" stroke-linecap="round" opacity="1" stroke-linejoin="round"/>
<path stroke="#cccccc" stroke-width="12.7" d="M213.009+155.75C213.009+155.75+213.762+149.77+216.27+143.467C217.831+139.545+220.07+135.499+223.23+132.69C231.47+125.365+245.969+126.451+245.969+126.451L237.604+133.988C237.604+133.988+237.939+142.263+233.71+146.023C225.47+153.347+213.009+155.75+213.009+155.75Z" fill="#cccccc" stroke-linecap="round" opacity="1" stroke-linejoin="round"/>
<path stroke="#cccccc" stroke-width="12.7" d="M267.505+136.836C267.505+136.836+268.258+130.856+270.766+124.553C272.327+120.632+274.567+116.586+277.727+113.776C285.967+106.452+300.465+107.538+300.465+107.538L292.101+115.075C292.101+115.075+292.435+123.35+288.206+127.109C279.966+134.434+267.505+136.836+267.505+136.836Z" fill="#cccccc" stroke-linecap="round" opacity="1" stroke-linejoin="round"/>
<path stroke="#cccccc" stroke-width="12.7" d="M179.069+504.741C179.069+504.741+179.822+498.761+182.33+492.458C183.891+488.536+186.131+484.49+189.291+481.681C197.531+474.356+212.029+475.442+212.029+475.442L203.665+482.979C203.665+482.979+203.999+491.254+199.77+495.014C191.53+502.338+179.069+504.741+179.069+504.741Z" fill="#cccccc" stroke-linecap="round" opacity="1" stroke-linejoin="round"/>
<path stroke="#cccccc" stroke-width="12.7" d="M240.889+590.424C240.889+590.424+241.642+584.444+244.151+578.14C245.711+574.219+247.951+570.173+251.111+567.364C259.351+560.039+273.849+561.125+273.849+561.125L265.485+568.662C265.485+568.662+265.82+576.937+261.59+580.696C253.35+588.021+240.889+590.424+240.889+590.424Z" fill="#cccccc" stroke-linecap="round" opacity="1" stroke-linejoin="round"/>
<path stroke="#cccccc" stroke-width="12.7" d="M225.029+544.215C225.029+544.215+225.782+538.235+228.29+531.932C229.85+528.011+232.09+523.964+235.25+521.155C243.49+513.83+257.989+514.917+257.989+514.917L249.624+522.453C249.624+522.453+249.959+530.728+245.729+534.488C237.489+541.812+225.029+544.215+225.029+544.215Z" fill="#cccccc" stroke-linecap="round" opacity="1" stroke-linejoin="round"/>
<path stroke="#cccccc" stroke-width="12.7" d="M186.893+595.122C186.893+595.122+187.646+589.142+190.154+582.839C191.715+578.918+193.954+574.871+197.114+572.062C205.355+564.737+219.853+565.824+219.853+565.824L211.488+573.36C211.488+573.36+211.823+581.635+207.594+585.395C199.354+592.719+186.893+595.122+186.893+595.122Z" fill="#cccccc" stroke-linecap="round" opacity="1" stroke-linejoin="round"/>
<path stroke="#cccccc" stroke-width="12.7" d="M191.698+359.73C191.698+359.73+192.451+353.75+194.959+347.447C196.52+343.525+198.759+339.479+201.92+336.67C210.16+329.345+224.658+330.431+224.658+330.431L216.294+337.968C216.294+337.968+216.628+346.243+212.399+350.002C204.159+357.327+191.698+359.73+191.698+359.73Z" fill="#cccccc" stroke-linecap="round" opacity="1" stroke-linejoin="round"/>
<path stroke="#cccccc" stroke-width="12.7" d="M83.9611+285.743C83.9611+285.743+84.7142+279.763+87.2224+273.46C88.7829+269.539+91.0226+265.493+94.1828+262.683C102.423+255.359+116.921+256.445+116.921+256.445L108.557+263.982C108.557+263.982+108.891+272.257+104.662+276.016C96.4219+283.341+83.9611+285.743+83.9611+285.743Z" fill="#cccccc" stroke-linecap="round" opacity="1" stroke-linejoin="round"/>
<path stroke="#cccccc" stroke-width="12.7" d="M129.187+296.08C129.187+296.08+129.94+290.1+132.449+283.797C134.009+279.875+136.249+275.829+139.409+273.02C147.649+265.695+162.147+266.781+162.147+266.781L153.783+274.318C153.783+274.318+154.118+282.593+149.888+286.353C141.648+293.677+129.187+296.08+129.187+296.08Z" fill="#cccccc" stroke-linecap="round" opacity="1" stroke-linejoin="round"/>
<path stroke="#cccccc" stroke-width="12.7" d="M98.5761+224.799C98.5761+224.799+99.3293+218.819+101.837+212.516C103.398+208.594+105.638+204.548+108.798+201.739C117.038+194.414+131.536+195.5+131.536+195.5L123.172+203.037C123.172+203.037+123.506+211.312+119.277+215.072C111.037+222.396+98.5761+224.799+98.5761+224.799Z" fill="#cccccc" stroke-linecap="round" opacity="1" stroke-linejoin="round"/>
<path stroke="#cccccc" stroke-width="12.7" d="M156.089+568.953C156.089+568.953+156.843+562.973+159.351+556.67C160.911+552.749+163.151+548.702+166.311+545.893C174.551+538.568+189.049+539.655+189.049+539.655L180.685+547.191C180.685+547.191+181.02+555.466+176.79+559.226C168.55+566.551+156.089+568.953+156.089+568.953Z" fill="#cccccc" stroke-linecap="round" opacity="1" stroke-linejoin="round"/>
<path stroke="#cccccc" stroke-width="12.7" d="M94.4045+588.544C94.4045+588.544+95.1576+582.564+97.6658+576.261C99.2262+572.34+101.466+568.293+104.626+565.484C112.866+558.16+127.365+559.246+127.365+559.246L119+566.782C119+566.782+119.335+575.057+115.105+578.817C106.865+586.142+94.4045+588.544+94.4045+588.544Z" fill="#cccccc" stroke-linecap="round" opacity="1" stroke-linejoin="round"/>
<path stroke="#cccccc" stroke-width="12.7" d="M208.42+644.698C208.42+644.698+209.173+638.718+211.682+632.415C213.242+628.493+215.482+624.447+218.642+621.638C226.882+614.313+241.38+615.399+241.38+615.399L233.016+622.936C233.016+622.936+233.351+631.211+229.121+634.971C220.881+642.295+208.42+644.698+208.42+644.698Z" fill="#cccccc" stroke-linecap="round" opacity="1" stroke-linejoin="round"/>
<path stroke="#cccccc" stroke-width="12.7" d="M122.147+621.732C122.147+621.732+122.9+615.752+125.408+609.449C126.968+605.528+129.208+601.482+132.368+598.672C140.608+591.348+155.107+592.434+155.107+592.434L146.742+599.971C146.742+599.971+147.077+608.246+142.848+612.005C134.608+619.33+122.147+621.732+122.147+621.732Z" fill="#cccccc" stroke-linecap="round" opacity="1" stroke-linejoin="round"/>
<path stroke="#cccccc" stroke-width="12.7" d="M226.018+293.887C226.018+293.887+226.771+287.907+229.279+281.604C230.84+277.683+233.08+273.637+236.24+270.827C244.48+263.503+258.978+264.589+258.978+264.589L250.614+272.126C250.614+272.126+250.948+280.401+246.719+284.16C238.479+291.485+226.018+293.887+226.018+293.887Z" fill="#cccccc" stroke-linecap="round" opacity="1" stroke-linejoin="round"/>
<path stroke="#cccccc" stroke-width="12.7" d="M145.497+658.416C145.497+658.416+146.25+652.436+148.758+646.133C150.318+642.211+152.558+638.165+155.718+635.356C163.958+628.031+178.457+629.117+178.457+629.117L170.092+636.654C170.092+636.654+170.427+644.929+166.197+648.689C157.957+656.013+145.497+658.416+145.497+658.416Z" fill="#cccccc" stroke-linecap="round" opacity="1" stroke-linejoin="round"/>
<path stroke="#cccccc" stroke-width="12.7" d="M126.076+537.972C126.076+537.972+126.829+531.992+129.338+525.689C130.898+521.767+133.138+517.721+136.298+514.912C144.538+507.587+159.036+508.673+159.036+508.673L150.672+516.21C150.672+516.21+151.007+524.485+146.777+528.245C138.537+535.569+126.076+537.972+126.076+537.972Z" fill="#cccccc" stroke-linecap="round" opacity="1" stroke-linejoin="round"/>
<path stroke="#cccccc" stroke-width="12.7" d="M92.4539+687.183C92.4539+687.183+93.2071+681.203+95.7153+674.9C97.2757+670.979+99.5154+666.932+102.676+664.123C110.916+656.799+125.414+657.885+125.414+657.885L117.05+665.421C117.05+665.421+117.384+673.696+113.155+677.456C104.915+684.781+92.4539+687.183+92.4539+687.183Z" fill="#cccccc" stroke-linecap="round" opacity="1" stroke-linejoin="round"/>
<path stroke="#cccccc" stroke-width="12.7" d="M68.4776+649.382C68.4776+649.382+69.2307+643.402+71.7389+637.099C73.2993+633.178+75.5391+629.131+78.6993+626.322C86.9393+618.997+101.438+620.084+101.438+620.084L93.0732+627.62C93.0732+627.62+93.4079+635.895+89.1784+639.655C80.9384+646.979+68.4776+649.382+68.4776+649.382Z" fill="#cccccc" stroke-linecap="round" opacity="1" stroke-linejoin="round"/>
<path stroke="#cccccc" stroke-width="12.7" d="M163.578+326.919C163.578+326.919+164.332+320.939+166.84+314.636C168.4+310.714+170.64+306.668+173.8+303.859C182.04+296.534+196.539+297.62+196.539+297.62L188.174+305.157C188.174+305.157+188.509+313.432+184.279+317.192C176.039+324.516+163.578+326.919+163.578+326.919Z" fill="#cccccc" stroke-linecap="round" opacity="1" stroke-linejoin="round"/>
<path stroke="#cccccc" stroke-width="12.7" d="M282.855+545.518C282.855+545.518+283.608+539.538+286.116+533.235C287.677+529.313+289.917+525.267+293.077+522.458C301.317+515.133+315.815+516.219+315.815+516.219L307.451+523.756C307.451+523.756+307.785+532.031+303.556+535.791C295.316+543.115+282.855+545.518+282.855+545.518Z" fill="#cccccc" stroke-linecap="round" opacity="1" stroke-linejoin="round"/>
</g>
</svg>
